<svg width="88" height="117" viewBox="0 0 88 117" fill="none" xmlns="http://www.w3.org/2000/svg">
<g id="logobig">
<path id="path28" d="M0.288424 4.07054H0.796427L0.723856 1.24026H0.796427C1.03744 1.95269 1.34412 2.64669 1.62374 3.34483C1.71039 3.56131 1.79501 3.93382 2.04255 4.0225C2.35061 4.13288 2.47057 3.6939 2.55265 3.48997C2.84083 2.77398 3.27408 1.99935 3.40899 1.24026H3.48157L3.40899 4.07054H3.917V0.441969C2.79889 0.445969 2.55599 2.49451 2.10271 3.34483C1.80154 2.56831 1.49739 1.78853 1.17017 1.02254C1.04498 0.729566 0.869721 0.28493 0.456572 0.4858C0.189219 0.61585 0.288424 1.14468 0.288424 1.3854V4.07054V4.07054ZM4.49757 4.07054C5.17539 4.04834 4.93379 3.48656 5.3886 3.20172C6.20104 2.69285 6.93372 3.32625 7.11014 4.07054H7.61814C7.39593 3.13277 6.93655 2.21148 6.58842 1.31283C6.49676 1.07624 6.40061 0.51244 6.08768 0.47579C5.7405 0.43519 5.6246 1.00273 5.53672 1.24026C5.19171 2.17236 4.72203 3.1007 4.49757 4.07054ZM7.90842 3.05454C8.01743 4.11213 9.67627 4.55198 10.3386 3.70006C11.0953 2.72666 9.72707 2.21845 9.06957 1.93201C8.8258 1.82576 8.49292 1.62692 8.53123 1.31392C8.66056 0.256327 9.77736 1.13183 10.0768 1.41382C10.1727 1.50412 10.3538 1.54619 10.4388 1.41382C10.6209 1.13057 10.1491 0.687518 9.93752 0.570318C9.43431 0.291568 8.51687 0.385842 8.17999 0.884192C7.28816 2.20376 9.53359 2.25862 9.93099 2.91416C10.3245 3.56309 9.29621 3.81927 8.85294 3.63443C8.44088 3.46251 8.39843 3.07077 7.90842 3.05451V3.05454ZM11.1741 0.441939V4.07051H11.6096C11.6096 3.35104 11.5861 2.93912 12.1176 2.40137C12.4524 3.07374 13.047 4.06093 13.8593 4.07051C13.6038 3.5575 12.4607 2.6058 12.535 2.03851C12.6101 1.46462 13.4733 0.982309 13.7141 0.441939C12.788 0.452939 12.2542 1.62602 11.6096 2.18365V0.441939H11.1741ZM19.0844 0.441939V0.877371H20.2456V4.07051H20.681V0.877371H21.8421V0.441939H19.0844V0.441939ZM22.4227 0.441939V4.07051H24.6724V3.70765C24.286 3.70765 23.1717 3.89757 22.9327 3.53943C22.7523 3.26896 22.8581 2.71466 22.8581 2.40137H24.4547V2.03851C24.0977 2.03851 23.1568 2.20601 22.9327 1.87029C22.7702 1.62667 22.8581 1.15822 22.8581 0.877371H24.6724V0.441939H22.4227V0.441939ZM25.3256 0.441939V4.07051H27.5027V3.70765H25.761V0.441939H25.3256H25.3256ZM28.0107 4.07051H30.2604V3.70765H28.5187V0.441939C27.9166 0.461639 28.0107 0.894707 28.0107 1.38537V4.07051V4.07051ZM31.0587 3.05451H30.5507C30.7221 4.1523 32.7871 4.67873 33.1318 3.4173C33.539 1.92733 31.4036 2.43533 31.2017 1.45685C31.1159 1.0408 31.6637 0.778597 32.0021 0.821417C32.4077 0.872817 32.6194 1.1662 32.7279 1.53051H33.1633C33.1008 0.375168 31.1193 -0.0942242 30.7432 1.09537C30.2712 2.5886 32.5838 2.09562 32.6798 3.12729C32.7649 4.0414 31.2525 3.74307 31.0587 3.0545V3.05451ZM38.8239 0.441931V4.0705H39.3319L39.2593 1.24022H39.3319L40.4204 4.0705C41.1805 4.0453 41.782 1.92413 41.9444 1.24022H42.017L41.9444 4.0705H42.4524V1.16764C42.4523 0.842889 42.4058 0.198311 41.892 0.516531C41.6528 0.664721 41.5804 1.06909 41.4782 1.31279C41.2183 1.93255 41.0339 2.86204 40.5656 3.34479L39.8108 1.31279L39.4263 0.516531L38.8239 0.441931V0.441931ZM44.1941 0.480627C42.4632 0.901397 42.9134 4.54775 44.9199 4.09367C46.8118 3.66536 46.3502 -0.0434127 44.1941 0.480627ZM46.8067 0.441931V4.0705H47.2421V2.61907C47.5078 2.61907 47.8626 2.55987 48.0854 2.73541C48.6718 3.19834 48.5143 4.05983 49.4193 4.0705L48.5484 2.47393C49.2749 2.22617 49.4795 1.17882 48.8358 0.696951C48.3082 0.302591 47.4236 0.441931 46.8067 0.441931V0.441931ZM49.9273 0.441931V4.0705H52.177V3.70764C51.7909 3.70764 50.6762 3.89756 50.4375 3.53942C50.2568 3.26902 50.3628 2.71465 50.3628 2.40136H51.9593V2.0385C51.6023 2.0385 50.661 2.206 50.4375 1.87028C50.2749 1.62666 50.3628 1.15821 50.3628 0.877356H52.1771V0.441931H49.9274H49.9273ZM57.5474 0.441931V0.877356H58.7085V4.0705H59.144V0.877356H60.3051V0.441931H57.5474ZM60.8857 0.441931V4.0705H61.3211C61.3211 3.69734 61.1571 2.79832 61.4372 2.51769C61.742 2.21289 62.7987 2.40136 63.208 2.40136V4.0705H63.6434V0.441931H63.208C63.208 0.818211 63.348 1.54835 63.1332 1.87028C62.9379 2.1634 61.591 2.1634 61.3958 1.87028C61.181 1.54835 61.321 0.818211 61.321 0.441931H60.8856H60.8857ZM64.2239 4.0705H64.7319C64.9046 3.32469 65.6397 2.69194 66.4532 3.20168C66.9083 3.48652 66.6666 4.0483 67.3444 4.0705C67.1202 3.10312 66.6499 2.17058 66.3052 1.24022C66.2174 1.00269 66.1013 0.435112 65.7544 0.475752C65.4489 0.511552 65.3313 1.0778 65.2435 1.31279C64.906 2.21558 64.4459 3.13317 64.2239 4.0705ZM67.8524 4.0705H68.3604V1.38536H68.433C68.8097 2.18147 69.7306 4.05925 70.6827 4.0705V1.38536C70.6827 0.894699 70.777 0.461671 70.1747 0.441931V3.19964C69.6892 2.47966 69.2168 1.75184 68.7458 1.0225C68.6014 0.799487 68.3605 0.336845 68.0201 0.487135C67.7523 0.605425 67.8525 1.1532 67.8525 1.38536V4.0705H67.8524ZM76.561 4.0705H77.069V2.47393H78.593V2.11107H77.069V0.877356H78.8107V0.441931C78.3289 0.441931 77.0589 0.214131 76.6771 0.516531C76.463 0.686351 76.561 1.21728 76.561 1.45793V4.0705V4.0705ZM78.6656 4.0705C79.3028 4.0496 79.1112 3.58173 79.5001 3.24341C80.2621 2.5809 81.0909 3.3839 81.2781 4.0705H81.7862C81.5307 3.13658 81.1098 2.21442 80.7556 1.31279C80.6649 1.08332 80.5546 0.510802 80.2556 0.475752C79.8986 0.433952 79.789 0.998627 79.6954 1.24022C79.3456 2.143 78.8296 3.11582 78.6656 4.0705V4.0705ZM84.9067 2.90936C84.2383 2.93126 84.2028 3.82092 83.4343 3.70807C82.3275 3.54544 82.3595 1.435 83.1665 0.939627C84.0243 0.412967 84.21 1.58021 84.9067 1.60307C84.8029 0.586782 83.5634 0.0279766 82.7325 0.690047C82.1497 1.15451 82.1207 1.93697 82.1519 2.61907C82.2288 4.31492 84.7456 4.74418 84.9067 2.90936V2.90936ZM85.5599 4.0705H87.8822V3.70764H86.0679V2.40136H87.5919V2.0385H86.0679V0.877356H87.8096V0.441931C87.3277 0.441931 86.0577 0.214131 85.676 0.516531C85.4619 0.686351 85.5599 1.21728 85.5599 1.45793V4.0705V4.0705ZM44.4845 0.829748C45.8902 0.613198 46.0273 3.52687 44.7747 3.69386C43.2994 3.89067 43.1618 1.03353 44.4845 0.829748ZM47.2422 0.877348C47.5528 0.877348 47.8765 0.850351 48.1856 0.885351C49.6639 1.0527 48.01 3.01525 47.3169 2.13996C47.1123 1.88176 47.2422 1.19407 47.2422 0.87744L47.2422 0.877348ZM6.09422 1.09515L6.67479 2.7643H5.44108L6.09422 1.09515ZM65.8205 1.09515L66.4011 2.7643H65.2399L65.8205 1.09515V1.09515ZM80.2622 1.09515L80.7702 2.7643H79.6091L80.2622 1.09515V1.09515ZM0.215933 6.10258V61.5471V76.8597V81.0689C0.215933 81.5819 0.0584527 82.4165 0.301493 82.8802C0.482704 83.2264 0.929818 83.4739 1.23193 83.7068L3.19136 85.2229C5.52438 87.0139 7.8196 88.8558 10.1582 90.6396C18.0723 96.6783 25.8914 102.849 33.7439 108.967C36.2316 110.905 38.7546 112.804 41.2188 114.771C41.8886 115.306 42.5676 115.831 43.2508 116.348C43.4663 116.511 43.7595 116.844 44.0491 116.844C44.3394 116.845 44.6355 116.52 44.8474 116.354C45.4729 115.864 46.1043 115.381 46.7342 114.896C49.1617 113.026 51.5457 111.099 53.9914 109.253C62.398 102.911 70.7046 96.393 78.9559 89.85C81.0902 88.1584 83.2601 86.5081 85.4148 84.8418C86.0541 84.3469 87.5491 83.5748 87.8387 82.8098C88.0549 82.2365 87.8822 81.3156 87.8822 80.706V76.0614V60.1683V6.10258H52.9027C47.0673 6.10258 41.1698 6.35346 35.3405 6.10158C34.6599 6.07208 34.3167 5.26955 33.8165 4.89225C33.5122 4.66285 33.0944 4.65335 32.7279 4.65161C30.7141 4.64161 28.5976 5.0723 26.6319 5.49786C25.8103 5.67573 24.9292 6.05935 24.0919 6.10006C21.4687 6.22757 18.8082 6.10306 16.1816 6.10306H0.215853L0.215933 6.10258ZM23.0033 6.46592V6.53852C21.1317 7.14754 18.9972 7.53623 17.2766 8.52139C15.3013 9.65242 13.4601 11.6404 11.8276 13.2122C10.9664 14.0413 9.5243 14.921 8.9565 15.9739C8.6988 16.4517 8.6758 17.0437 8.60337 17.5694C8.34632 19.436 8.76128 21.3866 8.47346 23.2299C8.36265 23.94 7.67649 24.6954 7.34658 25.3345C6.56883 26.8414 5.93949 28.4063 5.31037 29.9791C4.10916 32.982 3.7233 36.1688 3.30565 39.3408C3.20551 40.1013 3.20188 40.9754 3.30565 41.7357C3.33112 41.922 3.31385 42.3731 3.56967 42.4156C3.8413 42.4607 4.05343 41.9905 4.16367 41.8082L5.38323 39.7762C6.49336 37.9379 7.74304 36.1666 9.06957 34.4785C9.71292 33.6598 10.3894 32.6875 11.2467 32.0837C11.2414 34.0086 10.9042 36.4272 12.2239 38.0345C12.5814 38.47 13.0413 38.839 13.569 39.0456C14.4928 39.4073 15.5975 39.4322 15.7338 40.5745C15.9469 42.3604 15.8241 44.3798 14.2221 45.5062C13.6278 45.9241 12.9595 46.019 12.2627 46.1449C11.9499 46.2014 11.5615 46.3185 11.4696 46.6716C11.3751 47.035 11.7959 47.5917 11.9547 47.9042C12.5388 49.0533 13.1704 50.2077 13.8305 51.3151C15.1554 53.5373 16.5766 55.7081 18.0318 57.8465C18.5298 58.578 19.2396 60.0099 20.0308 60.4257C20.4895 60.6674 21.228 60.4453 21.697 60.311C22.9398 59.9554 24.1564 59.1426 25.3981 58.8908C25.8139 58.8073 26.2744 59.0606 26.6318 59.2486C28.6275 60.2987 27.9384 62.8975 27.9381 64.7408C26.2744 64.7749 24.4574 65.2756 22.8581 65.7147C22.4064 65.8388 21.503 65.8969 21.2462 66.3454C21.1267 66.5536 21.2407 66.8439 21.2796 67.0631C21.387 67.6662 21.4456 68.2714 21.5322 68.8774C21.8238 70.9181 22.2671 73.2026 22.126 75.2637C22.0075 76.9923 21.5202 78.8139 21.0896 80.4888C21.03 80.7203 20.5971 82.0564 20.7809 82.1405C21.0306 82.2552 21.5409 81.8532 21.7696 81.753C22.8424 81.2842 23.8924 80.6782 24.8901 80.0672C28.9576 77.5751 33.1141 74.723 36.5741 71.4203C39.0569 69.0501 41.7098 66.7743 43.9452 64.1602C46.978 60.6144 49.2647 56.5595 51.4738 52.4762C52.8476 49.9363 54.3382 47.4068 55.0145 44.5659C55.2141 43.728 55.0798 42.7392 55.0798 41.8808C55.0798 40.1258 55.0595 38.4065 55.2373 36.6557C55.704 32.0629 56.3107 27.7231 54.8135 23.2299C53.1937 18.3651 50.0978 14.2596 45.4278 12.0002C43.9844 11.3018 42.4533 10.733 40.8558 10.5412C40.2256 10.4656 39.6043 10.4429 38.969 10.4585C38.7099 10.4645 38.3593 10.5943 38.1218 10.4555C37.749 10.2371 37.4855 9.58086 37.2573 9.2241C36.6728 8.31079 35.7792 7.45118 35.3404 6.46639H87.5193V60.5321V76.2075V80.707L87.4757 82.6541L86.7936 83.2905L85.0519 84.6411L78.4479 89.7784L53.9913 108.783L46.7342 114.411L44.8473 115.889L44.049 116.368L43.2507 115.875L41.3639 114.407L33.7439 108.493L10.3759 90.3227L3.40902 84.9161L1.44959 83.3921L0.653338 82.7172L0.578737 81.0698V77.0058V61.911V6.46639H23.0033L23.0033 6.46592ZM85.1244 7.33725V60.7498V75.3367V79.3281L85.0388 80.9849L84.1811 81.723L82.2216 83.2557L75.6176 88.385L60.0148 100.495L51.0885 107.413C51.4085 107.985 52.2061 107.116 52.5399 106.858C53.8738 105.83 55.2156 104.806 56.5313 103.756C62.1564 99.2642 67.9258 94.952 73.5856 90.5041C76.3818 88.3066 79.2041 86.1411 82.0039 83.948C82.7978 83.3261 83.6099 82.7288 84.3988 82.1003C84.7195 81.8449 85.221 81.5873 85.4126 81.2142C85.5838 80.8804 85.4873 80.3463 85.4873 79.9812V77.0784V66.7007V29.3264V12.4898V8.57096C85.4873 8.14874 85.6607 7.42673 85.1244 7.33725H85.1244ZM51.7416 15.683L52.7068 15.6084L53.5762 13.7256L54.4993 13.651H56.749L57.4022 15.683H58.4907C58.0205 13.6975 57.0088 11.7139 56.2831 9.80467C56.1147 9.36351 55.86 8.07929 55.3629 7.9409C54.4304 7.68145 54.278 8.86995 54.0334 9.51439L52.5094 13.5058C52.2416 14.2082 51.8519 14.9364 51.7416 15.683V15.683ZM60.5227 15.683V12.5624C60.9799 12.5624 62.0032 12.3712 62.3653 12.6787C63.1767 13.3676 63.1825 15.0009 64.0526 15.6084C64.2994 15.7805 64.8066 15.683 65.0947 15.683L63.353 12.2721C64.7754 11.8505 65.2486 9.81164 64.2725 8.72285C63.4503 7.80606 62.0032 7.91782 60.8856 7.91782C60.5481 7.91782 59.9828 7.80998 59.6751 7.96162C59.2905 8.15096 59.5067 9.70544 59.5067 10.095V14.0864C59.5067 14.4418 59.3529 15.2778 59.5815 15.5667C59.7513 15.7813 60.2797 15.683 60.5228 15.683L60.5227 15.683ZM71.1182 7.91786V15.683H75.9805V14.8121H72.1342V12.0544H75.4725V11.2561H72.1342V8.78871H75.9805L75.8644 7.99246L74.6016 7.91786H71.1182V7.91786ZM60.5228 11.6916V8.78871C61.2899 8.78871 62.3632 8.59727 63.0628 8.96593C63.9714 9.44483 64.012 10.9203 63.1339 11.4575C62.4256 11.8912 61.3196 11.6916 60.5228 11.6916H60.5228ZM2.61076 16.1184L4.28099 14.5219L7.86667 10.7481L9.3599 9.00643C7.85332 9.27364 6.03969 9.00643 4.49762 9.00643C4.08708 9.00643 3.05707 8.8197 2.72709 9.08103C2.42541 9.31994 2.61076 10.461 2.61076 10.8207V16.1184V16.1184ZM55.1525 9.29671L56.3862 12.7801H53.8462L54.6408 10.4579L55.1525 9.29671V9.29671ZM80.9153 11.5464C79.3536 12.9807 77.8477 14.4317 76.6358 16.191C74.5457 19.2239 73.4027 22.989 72.6821 26.5687C72.3526 28.2083 72.3519 29.8516 72.1944 31.5036C72.1588 31.8761 71.9172 33.0517 72.2503 33.3158C72.5014 33.5145 73.0798 33.3726 73.3679 33.3386C74.3498 33.2224 75.3738 33.2801 76.3433 33.1001C76.3433 28.1191 76.3041 23.2659 77.7868 18.4407C78.3107 16.7343 79.051 15.0821 79.8834 13.5059C80.1439 13.0122 80.9952 12.099 80.9153 11.5464L80.9153 11.5464ZM20.1005 15.5379C19.8974 16.7171 19.1965 17.8896 18.667 18.9487C18.2018 19.8791 17.8149 20.8124 16.8348 21.3337C16.2058 21.6683 15.0064 21.6759 14.2948 21.7064C14.5077 21.0393 15.0854 20.4468 15.5014 19.8921C16.7407 18.2398 18.284 16.5728 20.1005 15.5379V15.5379ZM65.3851 16.5539V17.3521H70.1748V16.5539H65.3851ZM13.2788 89.4156C13.4129 89.0135 13.066 88.8365 12.7708 88.6086C12.1631 88.1405 11.5689 87.655 10.9565 87.1927C8.92885 85.6629 6.93538 84.083 4.93307 82.5206C4.40308 82.1069 3.07923 81.4298 3.04759 80.707C2.74068 73.6981 3.04619 66.6049 3.04619 59.5887V17.1344C2.4622 17.1799 2.61076 17.77 2.61076 18.223V21.7064V36.7287V68.007V77.2236V79.9087C2.61076 80.2803 2.52164 80.7897 2.65452 81.1417C2.77622 81.4632 3.14873 81.6613 3.40904 81.8594C4.019 82.3253 4.61801 82.8065 5.22333 83.2775C6.98776 84.6527 8.77163 86.004 10.521 87.3981C11.3224 88.0367 12.3064 89.0875 13.2788 89.4156H13.2788ZM73.7308 18.0053C70.3148 20.9894 68.4214 25.2124 67.7378 29.6167C67.584 30.6082 67.5549 31.5982 67.4381 32.5921C67.4076 32.8469 67.3038 33.4971 67.5332 33.6787C67.7705 33.8667 68.2364 33.7061 68.5056 33.6867C69.3039 33.6308 70.1 33.5351 70.9005 33.5351C70.9005 30.016 71.402 26.3618 72.2409 22.9397C72.5254 21.7797 72.8578 20.6497 73.2721 19.5288C73.4274 19.1088 73.8222 18.4476 73.7308 18.0048L73.7308 18.0053ZM61.8291 34.1157L65.2399 33.8979C65.2399 30.1808 66.3713 26.6137 67.7799 23.2299C66.8546 23.397 66.2501 24.2887 65.6028 24.8926C62.9394 27.3765 62.1063 30.6023 61.8291 34.1157V34.1157ZM57.7651 34.4785L60.5228 34.2608C60.5228 32.904 60.6832 31.3622 61.0417 30.0517C61.2572 29.2651 61.6418 28.5168 61.8291 27.7294C61.1948 27.5897 60.4364 28.6182 60.0511 29.0564C58.6178 30.6861 57.7651 32.2689 57.7651 34.4785ZM6.67479 31.2128L7.2362 34.1882L6.61804 35.2768L5.15079 37.5265H5.07821L6.52965 31.2128H6.67479V31.2128ZM74.0936 65.1762C74.6923 65.3083 75.2091 64.497 75.5509 64.0877C76.6975 62.7139 77.7999 61.3002 78.977 59.9511C79.4915 59.3611 80.0256 58.782 80.559 58.2094C80.8246 57.9242 81.2412 57.6411 81.3798 57.2659C81.5445 56.8186 81.3624 56.2631 81.2993 55.8145C81.152 54.7759 81.0076 53.725 80.8145 52.694C80.099 48.8673 79.2847 45.0888 78.3921 41.3002C78.0336 39.7774 77.7302 38.2432 77.3398 36.7282C77.2353 36.3231 77.1395 35.3258 76.7984 35.0611C76.5945 34.9028 76.1504 34.9864 75.908 34.9865C75.0458 34.9869 74.151 35.0825 73.2954 35.1835C73.053 35.2122 72.368 35.0839 72.2627 35.3725C72.024 36.0287 72.5813 37.3573 72.6938 38.0345C73.0312 40.0541 73.1249 42.1029 73.3883 44.1305C73.7454 46.8792 73.9544 49.7073 74.0218 52.4762C74.0922 55.3382 74.2526 58.1753 74.2388 61.0397C74.2318 62.3721 74.4036 63.875 74.0937 65.1762H74.0936ZM70.2474 35.3802C69.5377 35.472 68.7858 35.5485 68.0703 35.566C67.8446 35.572 67.3591 35.4751 67.2023 35.6834C66.9113 36.0697 67.3206 37.4781 67.3416 37.9619C67.436 40.1225 67.4258 42.2642 67.2785 44.4208C66.9476 49.2504 66.9825 54.0279 65.9171 58.7899C65.1377 62.277 63.9207 65.7082 62.5948 69.0225C62.094 70.2744 61.3676 71.4595 60.9126 72.7237C60.7638 73.1366 61.1303 73.4893 61.3451 73.8122C61.8887 74.6265 62.4642 75.419 63.0433 76.2071C63.2008 76.4212 63.5643 77.1353 63.8612 77.1353C64.2654 77.1353 64.9055 76.0678 65.137 75.7717C66.2473 74.3471 67.391 72.9595 68.5362 71.5625C69.5261 70.3549 70.5058 69.1386 71.4993 67.9339C71.9521 67.3846 72.6735 66.7205 72.9137 66.0471C73.1206 65.468 73.0538 64.7655 73.0806 64.1602L73.2258 60.6768C73.4442 55.6829 73.1104 50.462 72.405 45.5094C72.032 42.8928 71.68 40.276 71.2192 37.6717C71.0914 36.9518 71.2102 35.2558 70.2474 35.3802H70.2474ZM65.3852 35.7848C64.4178 35.7848 63.4468 35.8704 62.4823 35.9364C62.2646 35.9513 61.6855 35.9314 61.589 36.1707C61.4896 36.4192 61.6122 36.8907 61.6115 37.1637C61.6105 37.8773 61.5809 38.6274 61.5323 39.3408C61.3676 41.7516 61.0831 44.148 60.6346 46.5254C59.1368 54.4644 56.477 62.4475 52.7011 69.6031C52.1235 70.6982 51.5422 71.8035 50.9108 72.8688C50.5566 73.4661 49.9797 74.0989 49.7605 74.7557C49.4811 75.5953 49.6067 76.6991 49.4478 77.586C49.3186 78.3037 49.1669 79.0345 49.1263 79.7631C49.1147 79.9815 49.0138 80.2704 49.1323 80.4721C49.3435 80.8321 49.7411 80.5773 50.0002 80.4387C50.8152 80.0025 51.6853 79.647 52.5402 79.2986C53.7195 78.8182 54.9097 78.3632 56.0962 77.9009C56.6187 77.6977 57.3982 77.5097 57.8104 77.12C58.9664 76.0271 59.4839 73.7919 60.0985 72.3608C63.0907 65.3939 65.4376 58.2064 65.9594 50.5894C66.2453 46.4129 66.0283 42.1287 65.7417 37.9619C65.6909 37.2271 65.4173 36.5158 65.3854 35.7848L65.3852 35.7848ZM57.6202 36.2928C57.6152 38.2305 56.8764 40.0813 56.4794 41.9534C55.5578 46.3028 53.5722 50.1936 51.4742 54.0728C49.4124 57.8835 47.2091 61.6514 44.381 64.9585C42.3239 67.3642 39.9043 69.5457 37.5905 71.7011C36.8329 72.4072 35.6271 73.0662 35.0289 73.8913C34.4938 74.6294 34.2918 75.9161 34.0447 76.7876C33.5563 78.5112 32.9601 80.2065 32.5105 81.9402C33.4856 82.2283 34.7839 81.8618 35.7762 81.7435C37.0989 81.5853 38.4429 81.6158 39.7677 81.4525C40.3708 81.3785 41.4873 81.5418 41.9986 81.2152C42.6396 80.8059 43.2183 80.0134 43.7591 79.4728C45.2889 77.943 46.7447 76.2521 48.0662 74.5379C54.5055 66.1835 58.9657 56.1341 60.1 45.5819C60.3794 42.9791 60.8555 40.5267 60.6748 37.8894C60.6342 37.2951 60.7655 36.6501 60.5957 36.0751L57.6202 36.2928H57.6202ZM81.7139 58.7899C79.8242 60.6797 78.1224 62.7581 76.3313 64.7408C75.6898 65.4505 74.3959 66.3845 74.0649 67.2808C73.8291 67.9223 73.964 68.8527 73.9481 69.5305C73.9191 70.7062 73.832 71.9152 73.7187 73.0865C73.4495 75.8696 73.1375 78.6476 72.8726 81.4322C72.6215 84.0709 72.4408 86.7241 71.6265 89.2699C72.337 88.9375 72.8181 88.0094 73.2528 87.3831C74.3886 85.7488 75.3422 84.0107 76.3582 82.3031C77.8495 79.7979 79.261 77.247 80.6479 74.6831C81.2604 73.551 82.1465 72.3093 82.468 71.0545C82.69 70.188 82.5348 69.2453 82.513 68.3694C82.4731 66.7401 82.4687 65.129 82.3069 63.5071C82.1639 62.076 82.2763 60.1173 81.7139 58.7899V58.7899ZM63.6437 79.5453C62.5667 78.7703 61.7408 77.1396 60.9687 76.0619C60.6951 75.6802 60.428 75.0496 60.0151 74.8282L57.0898 80.7065L55.544 83.5368L55.7334 86.8751L55.806 95.3659C56.6297 95.019 57.3329 94.228 57.9831 93.6307C59.2205 92.4921 60.4194 91.307 61.6632 90.1778C63.9275 88.124 66.0676 85.9179 68.1497 83.6819C68.9421 82.8307 70.1838 81.8778 70.7238 80.8516C71.0663 80.1999 71.1389 79.3153 71.3 78.6019C71.6984 76.8413 72.009 75.0329 72.1411 73.2316C72.2282 72.0458 72.8131 70.3876 72.4974 69.2402C71.5946 69.5494 70.7317 70.9304 70.1062 71.6351C68.5474 73.3913 67.0734 75.2477 65.6031 77.0779C64.9834 77.8494 64.0588 78.6498 63.6437 79.5453H63.6437ZM32.7283 75.6991C30.259 77.9669 27.1678 79.856 24.2374 81.4656C22.7625 82.2755 21.1102 82.9061 19.738 83.8837C18.2628 84.9352 17.0288 86.5369 15.7466 87.8185C15.0263 88.5384 14.2276 89.1937 13.4243 89.82C13.0271 90.1292 12.4951 90.4086 12.2631 90.8665C16.2648 91.7925 20.3693 91.7657 24.4551 91.6655C26.0445 91.627 28.173 91.8883 29.6803 91.3135C30.1484 91.135 30.5624 90.7272 30.9866 90.4615C32.4661 89.5355 33.8469 88.4477 35.2683 87.4346C36.731 86.3917 38.2322 85.3707 39.6226 84.232C39.9054 83.9998 40.887 83.3887 40.8478 82.9642C40.8207 82.6703 40.3832 82.7929 40.2031 82.8045C39.5283 82.8495 38.843 82.7537 38.1711 82.8415C35.3023 83.2182 32.2837 83.1696 29.4626 83.8996C30.2611 81.9794 30.9229 79.988 31.7849 78.0939C32.0576 77.4945 32.8773 76.3544 32.7283 75.6991V75.6991ZM32.2203 95.9465C34.676 95.6156 37.18 94.5727 39.4774 93.683C42.4761 92.5218 45.3572 91.188 48.186 89.6596C49.2114 89.1059 50.5329 88.6335 51.4096 87.8606C52.2638 87.1087 52.8777 85.8663 53.5077 84.9156C54.3821 83.5985 55.1042 82.1833 55.8249 80.7791C56.1188 80.205 56.6007 79.5635 56.5317 78.8922C55.6442 79.0119 54.8219 79.4895 53.9917 79.8051C52.0533 80.5425 49.866 81.3335 48.1134 82.4482C47.8101 81.1753 48.1214 79.5911 48.289 78.3116C48.326 78.0322 48.5496 77.0184 48.2353 76.8733C47.8681 76.7035 47.379 77.575 47.2005 77.8036C46.297 78.9641 45.4537 80.1709 44.4123 81.2145C43.4098 82.2189 42.4915 83.2958 41.4368 84.2502C40.6525 84.9599 39.6415 85.5869 38.9669 86.4004C38.5449 86.9092 38.2994 87.6247 37.9292 88.1813C36.9483 89.6553 35.9042 91.0951 34.8744 92.5356C34.0546 93.6823 32.9191 94.7374 32.2203 95.9465V95.9465ZM16.9803 91.9551L16.8351 92.3179C18.4821 93.4065 19.9884 94.7665 21.5523 95.9719C25.0931 98.7013 28.6119 101.458 32.1477 104.194C33.3357 105.114 34.5214 106.035 35.7037 106.962C36.0249 107.214 36.7024 107.963 37.01 107.413L23.294 96.7869L19.3026 93.6815L16.9803 91.9551V91.9551ZM37.8808 108.429V108.501C39.0617 109.925 40.9164 110.998 42.3803 112.145C42.778 112.457 43.5273 113.311 44.0494 113.322C44.5538 113.331 45.2621 112.504 45.646 112.211C46.646 111.448 47.6207 110.651 48.6214 109.89C49.202 109.448 49.935 109.025 50.3631 108.429L37.8808 108.429Z" fill="#030408"/>
</g>
</svg>
