<svg width="392" height="230" viewBox="0 0 392 230" fill="none" xmlns="http://www.w3.org/2000/svg">
<rect width="392" height="230" fill="#E5E5E5"/>
<g id="mail">
<g id="Group">
<path id="Vector" fill-rule="evenodd" clip-rule="evenodd" d="M1.10849 1V1.8H389.95C380.84 -1.5662 365.326 1 355.427 1H276.386H1.10849Z" fill="#6F6F6F"/>
<path id="Vector_2" fill-rule="evenodd" clip-rule="evenodd" d="M389.95 1V4.2H390.858C390.701 2.852 390.57 2.2048 389.95 1Z" fill="#E7E7E7"/>
<path id="Vector_3" fill-rule="evenodd" clip-rule="evenodd" d="M1.10849 1.8C1.10849 77.219 2.9255 153.055 2.9255 228.2C17.1891 230.532 32.9553 229 47.4424 229H130.117H389.95L389.041 1.8H1.10849Z" fill="#010101"/>
<path id="Vector_4" fill-rule="evenodd" clip-rule="evenodd" d="M389.041 1.8V4.2H389.95C389.722 3.0384 389.664 2.7984 389.041 1.8Z" fill="#1F1F1F"/>
<path id="Vector_5" fill-rule="evenodd" clip-rule="evenodd" d="M389.041 4.2V9.8H389.95C389.933 7.7656 389.936 6.0656 389.041 4.2Z" fill="#4A4A4A"/>
<path id="Vector_6" fill-rule="evenodd" clip-rule="evenodd" d="M26.5468 9.80001V10.6H196.438C191.699 8.8488 185.189 9.80001 180.085 9.80001H145.561H26.5468Z" fill="#616161"/>
<path id="Vector_7" fill-rule="evenodd" clip-rule="evenodd" d="M196.438 9.80001V10.6H376.322C371.36 8.7664 364.409 9.80001 359.061 9.80001H322.72H196.438Z" fill="#C5C3C3"/>
<path id="Vector_8" fill-rule="evenodd" clip-rule="evenodd" d="M376.322 9.8L377.231 10.6L376.322 9.8Z" fill="#6F6F6F"/>
<path id="Vector_9" fill-rule="evenodd" clip-rule="evenodd" d="M389.041 9.8V15.4H389.95C389.933 13.3656 389.936 11.6656 389.041 9.8Z" fill="#616161"/>
<path id="Vector_10" fill-rule="evenodd" clip-rule="evenodd" d="M24.7297 10.6L25.6382 11.4L24.7297 10.6Z" fill="#373737"/>
<path id="Vector_11" fill-rule="evenodd" clip-rule="evenodd" d="M25.6382 10.6L26.5468 11.4L25.6382 10.6Z" fill="#ACACAB"/>
<path id="Vector_12" fill-rule="evenodd" clip-rule="evenodd" d="M23.8212 12.2C36.9937 24.406 54.3187 34.165 69.2466 44.68C111.033 74.116 156.283 101.8 195.529 133.8H196.438C236.565 105.122 278.29 78.085 319.086 50.139C337.027 37.85 361.123 26.205 375.414 10.6H125.574H55.619C46.0081 10.6 32.5956 8.48159 23.8212 12.2Z" fill="white"/>
<path id="Vector_13" fill-rule="evenodd" clip-rule="evenodd" d="M375.414 10.6L376.322 11.4L375.414 10.6Z" fill="#8A8A89"/>
<path id="Vector_14" fill-rule="evenodd" clip-rule="evenodd" d="M374.505 11.4L375.414 12.2L374.505 11.4Z" fill="#5B5B5B"/>
<path id="Vector_15" fill-rule="evenodd" clip-rule="evenodd" d="M24.7297 13L25.6382 13.8L24.7297 13Z" fill="#C5C3C3"/>
<path id="Vector_16" fill-rule="evenodd" clip-rule="evenodd" d="M371.78 13L372.688 13.8L371.78 13Z" fill="#D4D3D4"/>
<path id="Vector_17" fill-rule="evenodd" clip-rule="evenodd" d="M25.6382 13.8L26.5468 14.6L25.6382 13.8Z" fill="#ACACAB"/>
<path id="Vector_18" fill-rule="evenodd" clip-rule="evenodd" d="M370.871 13.8L371.78 14.6L370.871 13.8Z" fill="#C5C3C3"/>
<path id="Vector_19" fill-rule="evenodd" clip-rule="evenodd" d="M26.5468 14.6L27.4553 15.4L26.5468 14.6Z" fill="#6F6F6F"/>
<path id="Vector_20" fill-rule="evenodd" clip-rule="evenodd" d="M369.963 14.6L370.871 15.4L369.963 14.6Z" fill="#C5C3C3"/>
<path id="Vector_21" fill-rule="evenodd" clip-rule="evenodd" d="M389.95 15.4V37H390.858C390.858 30.58 392.774 21.327 389.95 15.4Z" fill="#E7E7E7"/>
<path id="Vector_22" fill-rule="evenodd" clip-rule="evenodd" d="M9.2851 27.4V196.2C18.1621 192.895 26.1188 185.981 33.8148 180.898L81.9657 148.916C98.2053 138.191 120.957 127.639 133.751 113.8C104.589 94.767 76.6987 73.93 48.3509 53.96C36.3459 45.502 23.3197 32.908 9.2851 27.4ZM260.033 113.8V115.4C304.248 137.583 338.443 174.805 382.682 197V31.4C368.991 36.772 356.377 48.405 344.525 56.48C316.458 75.602 288.851 95.571 260.033 113.8Z" fill="white"/>
<path id="Vector_23" fill-rule="evenodd" clip-rule="evenodd" d="M389.95 37V45H390.858C390.858 42.269 391.156 39.53 389.95 37Z" fill="#D4D3D4"/>
<path id="Vector_24" fill-rule="evenodd" clip-rule="evenodd" d="M389.95 45V63.4H390.858C390.858 57.826 392.406 50.156 389.95 45Z" fill="#E7E7E7"/>
<path id="Vector_25" fill-rule="evenodd" clip-rule="evenodd" d="M389.95 63.4V81H390.858C390.858 75.638 392.314 68.362 389.95 63.4Z" fill="#D4D3D4"/>
<path id="Vector_26" fill-rule="evenodd" clip-rule="evenodd" d="M389.344 84.734C389.294 84.778 389.244 85.622 389.648 85.266C389.698 85.222 389.748 84.378 389.344 84.734Z" fill="#1F1F1F"/>
<path id="Vector_27" fill-rule="evenodd" clip-rule="evenodd" d="M388.133 85.8V90.6H389.041C388.998 88.798 388.927 87.442 388.133 85.8Z" fill="#131313"/>
<path id="Vector_28" fill-rule="evenodd" clip-rule="evenodd" d="M389.041 85.8V90.6H389.95C389.907 88.798 389.835 87.442 389.041 85.8Z" fill="#4A4A4A"/>
<path id="Vector_29" fill-rule="evenodd" clip-rule="evenodd" d="M389.041 90.6V93.8H389.95C389.792 92.452 389.661 91.805 389.041 90.6Z" fill="#1F1F1F"/>
<path id="Vector_30" fill-rule="evenodd" clip-rule="evenodd" d="M389.95 91.4V117H390.858C390.858 109.53 393.231 98.285 389.95 91.4Z" fill="#E7E7E7"/>
<path id="Vector_31" fill-rule="evenodd" clip-rule="evenodd" d="M389.95 117V124.2H390.858C390.856 121.699 391.051 119.312 389.95 117Z" fill="#D4D3D4"/>
<path id="Vector_32" fill-rule="evenodd" clip-rule="evenodd" d="M389.95 124.2V229H390.858V156.2C390.858 147.064 393.954 132.603 389.95 124.2Z" fill="#E7E7E7"/>
<path id="Vector_33" fill-rule="evenodd" clip-rule="evenodd" d="M151.012 126.6C120.743 147.738 89.1668 167.58 58.3445 188.096C46.2307 196.159 26.0007 205.277 18.3701 217C136.469 217 254.666 217.061 372.688 216.2C364.273 206.02 349.495 198.615 338.165 191.101L276.386 149.501L253.674 134.08C250.646 132.02 246.667 128.219 242.772 127.598C238.595 126.934 233.136 132.262 230.053 134.302L206.431 150.321C203.658 152.203 200.049 155.826 196.438 156.286C192.156 156.832 186.773 151.312 183.719 149.16C172.975 141.592 162.494 133.281 151.012 126.6Z" fill="white"/>
<path id="Vector_34" fill-rule="evenodd" clip-rule="evenodd" d="M61.07 185.8L61.9785 186.6L61.07 185.8Z" fill="#D4D3D4"/>
<path id="Vector_35" fill-rule="evenodd" clip-rule="evenodd" d="M57.436 188.2L58.3445 189L57.436 188.2Z" fill="#BCBCBB"/>
<path id="Vector_36" fill-rule="evenodd" clip-rule="evenodd" d="M53.802 190.6L54.7105 191.4L53.802 190.6ZM46.5339 195.4L47.4424 196.2L46.5339 195.4ZM42.8999 197.8L43.8084 198.6L42.8999 197.8ZM39.2659 200.2L40.1744 201L39.2659 200.2Z" fill="#C5C3C3"/>
<path id="Vector_37" fill-rule="evenodd" clip-rule="evenodd" d="M35.6318 202.6L36.5403 203.4L35.6318 202.6Z" fill="#ACACAB"/>
<path id="Vector_38" fill-rule="evenodd" clip-rule="evenodd" d="M34.7233 203.4L35.6318 204.2L34.7233 203.4Z" fill="#D4D3D4"/>
<path id="Vector_39" fill-rule="evenodd" clip-rule="evenodd" d="M31.9978 205L32.9063 205.8L31.9978 205Z" fill="#8A8A89"/>
<path id="Vector_40" fill-rule="evenodd" clip-rule="evenodd" d="M31.0893 205.8L31.9978 206.6L31.0893 205.8Z" fill="#BCBCBB"/>
<path id="Vector_41" fill-rule="evenodd" clip-rule="evenodd" d="M30.1808 206.6L31.0893 207.4L30.1808 206.6Z" fill="#D4D3D4"/>
<path id="Vector_42" fill-rule="evenodd" clip-rule="evenodd" d="M28.3638 207.4L29.2723 208.2L28.3638 207.4Z" fill="#4A4A4A"/>
<path id="Vector_43" fill-rule="evenodd" clip-rule="evenodd" d="M27.4552 208.2L28.3637 209L27.4552 208.2Z" fill="#6F6F6F"/>
<path id="Vector_44" fill-rule="evenodd" clip-rule="evenodd" d="M26.5468 209L27.4553 209.8L26.5468 209Z" fill="#9F9F9F"/>
<path id="Vector_45" fill-rule="evenodd" clip-rule="evenodd" d="M25.6382 209.8L26.5468 210.6L25.6382 209.8Z" fill="#ACACAB"/>
<path id="Vector_46" fill-rule="evenodd" clip-rule="evenodd" d="M23.8212 210.6L24.7297 211.4L23.8212 210.6Z" fill="#373737"/>
<path id="Vector_47" fill-rule="evenodd" clip-rule="evenodd" d="M22.9127 211.4L23.8212 212.2L22.9127 211.4Z" fill="#6F6F6F"/>
<path id="Vector_48" fill-rule="evenodd" clip-rule="evenodd" d="M367.237 211.4L368.146 212.2L367.237 211.4Z" fill="#D4D3D4"/>
<path id="Vector_49" fill-rule="evenodd" clip-rule="evenodd" d="M22.0042 212.2L22.9127 213L22.0042 212.2Z" fill="#8A8A89"/>
<path id="Vector_50" fill-rule="evenodd" clip-rule="evenodd" d="M369.054 212.2L369.963 213L369.054 212.2Z" fill="#373737"/>
<path id="Vector_51" fill-rule="evenodd" clip-rule="evenodd" d="M21.0957 213L22.0042 213.8L21.0957 213Z" fill="#9F9F9F"/>
<path id="Vector_52" fill-rule="evenodd" clip-rule="evenodd" d="M369.963 213L370.871 213.8L369.963 213Z" fill="#373737"/>
<path id="Vector_53" fill-rule="evenodd" clip-rule="evenodd" d="M20.1872 213.8L21.0957 214.6L20.1872 213.8Z" fill="#C5C3C3"/>
<path id="Vector_54" fill-rule="evenodd" clip-rule="evenodd" d="M370.871 213.8L371.78 214.6L370.871 213.8Z" fill="#373737"/>
<path id="Vector_55" fill-rule="evenodd" clip-rule="evenodd" d="M19.2787 214.6L20.1872 215.4L19.2787 214.6Z" fill="#C5C3C3"/>
<path id="Vector_56" fill-rule="evenodd" clip-rule="evenodd" d="M371.78 214.6L372.688 215.4L371.78 214.6ZM17.4617 215.4L18.3702 216.2L17.4617 215.4Z" fill="#373737"/>
<path id="Vector_57" fill-rule="evenodd" clip-rule="evenodd" d="M372.99 215.934C372.94 215.978 372.89 216.822 373.295 216.466C373.345 216.422 373.395 215.578 372.99 215.934ZM16.5532 216.2L17.4617 217L16.5532 216.2Z" fill="#5B5B5B"/>
<path id="Vector_58" fill-rule="evenodd" clip-rule="evenodd" d="M16.5532 217V217.8H56.5275C47.0904 214.313 26.7775 216.01 16.5532 217ZM365.42 216.2V217H371.78C369.661 216.212 367.73 216.215 365.42 216.2Z" fill="#D4D3D4"/>
<path id="Vector_59" fill-rule="evenodd" clip-rule="evenodd" d="M371.78 216.2L372.688 217L371.78 216.2Z" fill="#ACACAB"/>
<path id="Vector_60" fill-rule="evenodd" clip-rule="evenodd" d="M15.6447 217L16.5532 217.8L15.6447 217Z" fill="#616161"/>
<path id="Vector_61" fill-rule="evenodd" clip-rule="evenodd" d="M56.5275 217L57.436 217.8L56.5275 217Z" fill="#6F6F6F"/>
<path id="Vector_62" fill-rule="evenodd" clip-rule="evenodd" d="M1.41128 218.334C1.36086 218.378 1.31044 219.222 1.71427 218.866C1.76469 218.822 1.81512 217.978 1.41128 218.334Z" fill="#4A4A4A"/>
<path id="Vector_63" fill-rule="evenodd" clip-rule="evenodd" d="M2.01706 218.6V228.2H2.92556C2.92556 225.014 3.42661 221.558 2.01706 218.6Z" fill="#373737"/>
<path id="Vector_64" fill-rule="evenodd" clip-rule="evenodd" d="M1.10849 219.4V221.8H2.017C1.78874 220.638 1.73059 220.398 1.10849 219.4Z" fill="#6F6F6F"/>
<path id="Vector_65" fill-rule="evenodd" clip-rule="evenodd" d="M1.10849 221.8V228.2H2.017C2.01041 225.932 2.1058 223.89 1.10849 221.8Z" fill="#9F9F9F"/>
<path id="Vector_66" fill-rule="evenodd" clip-rule="evenodd" d="M0.200012 222.6V228.2H1.10852C1.09149 226.166 1.09444 224.466 0.200012 222.6Z" fill="#E7E7E7"/>
<path id="Vector_67" fill-rule="evenodd" clip-rule="evenodd" d="M1.10849 228.2L2.017 229L1.10849 228.2Z" fill="#C5C3C3"/>
<path id="Vector_68" fill-rule="evenodd" clip-rule="evenodd" d="M2.01706 228.2L2.92556 229L2.01706 228.2Z" fill="#5B5B5B"/>
<path id="Vector_69" fill-rule="evenodd" clip-rule="evenodd" d="M2.92554 228.2V229H5.65106C4.5169 228.452 4.24435 228.401 2.92554 228.2Z" fill="#1F1F1F"/>
</g>
</g>
</svg>
