<svg width="211" height="183" viewBox="0 0 211 183" fill="none" xmlns="http://www.w3.org/2000/svg">
<g id="Group 2">
<path id="Vector" d="M155.3 93.35L205.3 179.85H105.3H5.29999L55.3 93.35L105.3 6.85001L155.3 93.35Z" stroke="#1BB5EF" stroke-width="6"/>
<path id="Vector_2" d="M60.3 109.92C60.63 110.63 62.28 114.21 65.26 120.66L67.96 119.09C67.96 115.77 67.96 113.93 67.96 113.56C69.56 110.34 71.79 107.39 76.18 105.32C76.18 109.45 76.18 130.09 76.18 167.25H73.9L73.92 169.46H89.38V167.32H87.06C87.06 157.95 87.06 152.74 87.06 151.7C173.31 171.03 161.71 86.13 109.64 87.1C95.72 87.36 78.91 93.75 60.3 109.92ZM87.06 144.76C87.06 140.16 87.06 103.3 87.06 98.69C95.27 94.7 102.61 93.02 109 93.07C150.7 93.36 151.66 166.78 87.06 144.76Z" fill="#1BB5EF"/>
</g>
</svg>
