<svg width="211" height="183" viewBox="0 0 211 183" fill="none" xmlns="http://www.w3.org/2000/svg">
<g id="Group 1">
<path id="Vector" d="M155.3 93.35L205.3 179.85H105.3H5.3L55.3 93.35L105.3 6.85001L155.3 93.35Z" stroke="#1BB5EF" stroke-width="6"/>
<path id="Vector_2" d="M141.14 113.02C141.14 136.33 122.57 163.21 88.61 163.21C88.61 163.2 88.61 163.19 88.61 163.19C78.57 163.21 68.75 160.46 60.3 155.28C61.76 155.45 63.23 155.54 64.7 155.54C73.01 155.55 81.09 152.88 87.63 147.97C79.73 147.83 72.8 142.91 70.38 135.73C73.15 136.24 76 136.13 78.72 135.42C70.1 133.76 63.9 126.53 63.9 118.13C63.9 118.06 63.9 117.98 63.9 117.91C66.47 119.28 69.34 120.03 72.28 120.12C64.17 114.94 61.67 104.63 66.57 96.57C75.94 107.59 89.78 114.28 104.62 114.99C103.14 108.87 105.17 102.45 109.97 98.14C117.4 91.46 129.1 91.81 136.09 98.91C140.23 98.13 144.19 96.68 147.82 94.62C146.44 98.71 143.55 102.18 139.7 104.38C143.36 103.97 146.93 103.03 150.3 101.6C147.82 105.15 144.7 108.24 141.09 110.74C141.14 111.5 141.14 112.26 141.14 113.02Z" fill="#1D9BF0"/>
</g>
</svg>
